<svg width="40" height="40" viewBox="0 0 40 40" fill="none" xmlns="http://www.w3.org/2000/svg">
<path fill-rule="evenodd" clip-rule="evenodd" d="M20 4C11.163 4 4 11.164 4 20C4 28.837 11.163 36 20 36C28.837 36 36 28.837 36 20C36 11.164 28.837 4 20 4ZM25.658 25.706C25.265 26.098 24.633 26.097 24.242 25.706L20 21.465L15.758 25.707C15.367 26.098 14.734 26.098 14.344 25.707C13.952 25.316 13.953 24.683 14.344 24.293L18.586 20.05L14.344 15.808C13.953 15.417 13.953 14.784 14.344 14.393C14.734 14.002 15.367 14.003 15.758 14.393L20 18.635L24.242 14.392C24.633 14.004 25.265 14.002 25.656 14.392C26.048 14.785 26.047 15.418 25.656 15.808L21.415 20.05L25.658 24.292C26.047 24.683 26.049 25.315 25.658 25.706Z" fill="#FF5354"/>
</svg>
