<svg xmlns="http://www.w3.org/2000/svg" xmlns:xlink="http://www.w3.org/1999/xlink" width="20" height="20">
  <desc>
    Created with Sketch.
  </desc>
  <defs>
    <path id="a" d="M10 2a8 8 0 1 0 0 16 8 8 0 0 0 0-16zm.7 12.74a1 1 0 0 1-.7.26c-.26 0-.5-.09-.69-.26A.94.94 0 0 1 9 14c0-.28.1-.52.3-.71a1.02 1.02 0 0 1 1.41 0c.2.19.29.43.29.7 0 .31-.1.56-.3.75zm2.32-6.08c-.14.26-.3.49-.5.68l-.96.87a3.52 3.52 0 0 0-.41.47 7.4 7.4 0 0 0-.16.54c-.09.5-.42.78-.92.78a.93.93 0 0 1-.67-.26 1 1 0 0 1-.28-.75 2.32 2.32 0 0 1 .6-1.6l.67-.63.5-.45c.09-.1.17-.2.22-.3a.6.6 0 0 0 .08-.3c0-.22-.08-.4-.25-.55a.95.95 0 0 0-.67-.24c-.33 0-.57.08-.71.23-.17.17-.31.45-.43.81-.2.67-.64.8-.97.8a.96.96 0 0 1-.71-.29.93.93 0 0 1-.3-.66c0-.4.13-.8.38-1.21.25-.4.62-.73 1.1-.99a3.4 3.4 0 0 1 1.64-.39c.57 0 1.09.11 1.54.33.45.21.8.52 1.05.9a2.25 2.25 0 0 1 .16 2.2z"/>
  </defs>
  <use fill="#B4C6D9" fill-rule="nonzero" xlink:href="#a"/>
</svg>