<svg width="32" height="33" viewBox="0 0 32 33" fill="none" xmlns="http://www.w3.org/2000/svg">
<path fill-rule="evenodd" clip-rule="evenodd" d="M0 16.0059C0 7.20586 7.2 0.00585938 16 0.00585938C24.8 0.00585938 32 7.20586 32 16.0059C32 24.8059 24.8 32.0059 16 32.0059C7.2 32.0059 0 24.8059 0 16.0059ZM14.8 21.7059L23.7 12.8059C24 12.4059 24 11.8059 23.5 11.4059C23.1 11.0059 22.5 11.0059 22.1 11.4059L13.9 19.6059L9.7 15.4059C9.3 15.0059 8.7 15.0059 8.3 15.4059C7.9 15.8059 7.9 16.4059 8.3 16.8059L13.2 21.7059C13.5 21.9059 13.7 22.0059 14 22.0059C14.3 22.0059 14.5 21.9059 14.8 21.7059Z" fill="#85E954"/>
</svg>
