<svg width="161" height="161" viewBox="0 0 161 161" fill="none" xmlns="http://www.w3.org/2000/svg">
<path d="M137.197 24.9909C122.618 12.2933 103.568 5.32092 80.6577 5.36643C58.1897 5.41194 37.8856 12.4571 23.4779 25.2094C8.07851 38.8446 -0.0359445 58.0958 0.000119692 80.8788C0.0452 103.662 8.23178 122.886 23.6763 136.466C38.129 149.164 58.4602 156.145 80.9192 156.1C103.829 156.054 122.853 149.009 137.387 136.266C152.876 122.676 161.045 103.416 161 80.5875C160.964 57.7499 152.732 38.5351 137.197 24.9909ZM80.5045 104.426C67.5394 104.426 57.0357 93.8131 57.0357 80.7332C57.0357 67.6532 67.5484 57.04 80.5045 57.04C93.4696 57.04 103.973 67.6532 103.973 80.7332C103.973 93.8131 93.4696 104.426 80.5045 104.426Z" fill="#2D00FB"/>
</svg>
