<svg width="101" height="17" viewBox="0 0 101 17" fill="none" xmlns="http://www.w3.org/2000/svg">
<path d="M37.3115 15.9685V0.140625H50.6909V4.22746H44.0232C43.4872 4.22746 43.0527 4.66541 43.0527 5.20548C43.0527 5.74554 43.4872 6.18349 44.0232 6.18349H50.6909V10.0052H43.952C43.4551 10.0052 43.0527 10.4107 43.0527 10.9115C43.0527 11.4123 43.4551 11.8179 43.952 11.8179H50.6909V15.9695H37.3115V15.9685Z" fill="#2D00FB"/>
<path d="M82.9308 15.9683V10.7954H79.8098C78.8744 10.7954 78.1153 10.6599 78.1153 9.34804V0.183594H71.127V15.9683H82.9308Z" fill="#2D00FB"/>
<path d="M33.4729 7.6749C33.2975 7.52073 33.2722 7.25659 33.4144 7.071C33.9435 6.38463 34.3615 5.55194 34.3596 4.4502C34.3567 2.81233 33.7633 1.68113 32.5462 0.991807C31.5592 0.433083 30.1736 0.173851 28.1878 0.177778H19.5361V15.9615H28.4879C30.4883 15.9576 32.0522 15.5589 33.1358 14.7773C34.3343 13.9122 34.9403 12.5875 34.9374 10.8407C34.9355 9.49051 34.3274 8.4251 33.4729 7.6749ZM26.8139 12.5659C26.7983 12.5659 26.7837 12.5659 26.7681 12.565C26.2916 12.5542 25.8473 12.3558 25.5179 12.0082C25.1886 11.6606 25.0132 11.204 25.0249 10.7238C25.0473 9.73992 25.8297 8.96811 26.8061 8.96615C26.8217 8.96615 26.8363 8.96615 26.8519 8.96713C27.3284 8.97793 27.7727 9.17628 28.102 9.52389C28.4314 9.8715 28.6068 10.3281 28.5951 10.8083C28.5727 11.7912 27.7902 12.564 26.8139 12.5659ZM26.8139 7.26936C26.7983 7.26936 26.7837 7.26936 26.7681 7.26837C26.2916 7.25757 25.8473 7.05922 25.5179 6.71161C25.1886 6.36401 25.0132 5.9074 25.0249 5.42723C25.0473 4.44333 25.8297 3.67152 26.8061 3.66956C26.8217 3.66956 26.8363 3.66956 26.8519 3.67054C27.3284 3.68134 27.7727 3.8797 28.102 4.2273C28.4314 4.57491 28.6068 5.03151 28.5951 5.51168C28.5727 6.49559 27.7902 7.26837 26.8139 7.26936Z" fill="#2D00FB"/>
<path d="M65.7932 9.785C65.5633 9.72314 65.5136 9.39124 65.9316 9.19191C67.437 8.28656 68.2545 7.09743 68.2545 5.33681C68.2545 0.770784 64.4115 0.185547 61.0635 0.185547H53.6172V15.9702H59.7598V11.959H60.5188C62.4277 11.959 62.9402 14.0309 62.9402 15.9702H69.0623C69.0633 12.1407 67.9583 10.3712 65.7932 9.785ZM60.5286 7.78872C60.512 7.78872 60.4945 7.78872 60.4779 7.78773C59.9468 7.77497 59.4519 7.55501 59.0855 7.16813C58.7191 6.78026 58.5233 6.2726 58.5359 5.73744C58.5613 4.64159 59.4324 3.78141 60.5198 3.77945C60.5364 3.77945 60.5539 3.77945 60.5705 3.78043C61.1015 3.7932 61.5965 4.01315 61.9629 4.40004C62.3302 4.7879 62.5251 5.29557 62.5124 5.83073C62.4881 6.92657 61.616 7.78675 60.5286 7.78872Z" fill="#2D00FB"/>
<path d="M14.8274 2.11709C13.2518 0.747281 11.1929 -0.00488582 8.71695 2.38846e-05C6.28876 0.00493359 4.09442 0.764956 2.53734 2.14065C0.873071 3.6116 -0.00388464 5.68841 1.29355e-05 8.1462C0.00488491 10.604 0.889635 12.6779 2.55877 14.1429C4.12073 15.5127 6.31799 16.2659 8.7452 16.261C11.2211 16.2561 13.2771 15.496 14.8478 14.1213C16.5218 12.6553 17.4047 10.5775 17.3998 8.11478C17.3959 5.65109 16.5063 3.57822 14.8274 2.11709ZM8.70038 10.6865C7.2992 10.6865 6.16403 9.54154 6.16403 8.13049C6.16403 6.71944 7.30018 5.5745 8.70038 5.5745C10.1016 5.5745 11.2367 6.71944 11.2367 8.13049C11.2367 9.54154 10.1016 10.6865 8.70038 10.6865Z" fill="#2D00FB"/>
<path d="M98.4045 2.11709C96.8289 0.747281 94.77 -0.00488582 92.2941 2.38846e-05C89.8659 0.00395165 87.6716 0.764956 86.1155 2.14065C84.4512 3.6116 83.5733 5.68841 83.5781 8.1462C83.582 10.604 84.4678 12.6779 86.1369 14.1429C87.6989 15.5127 89.8961 16.2659 92.3233 16.261C94.7993 16.2561 96.8553 15.496 98.426 14.1213C100.1 12.6553 100.983 10.5775 100.978 8.11478C100.973 5.65109 100.083 3.57822 98.4045 2.11709ZM92.2775 10.6865C90.8764 10.6865 89.7412 9.54154 89.7412 8.13049C89.7412 6.71944 90.8773 5.5745 92.2775 5.5745C93.6787 5.5745 94.8139 6.71944 94.8139 8.13049C94.8139 9.54154 93.6787 10.6865 92.2775 10.6865Z" fill="#2D00FB"/>
</svg>
