<svg width="16" height="16" viewBox="0 0 16 16" fill="none" xmlns="http://www.w3.org/2000/svg">
<path d="M8.00001 6.86864L11.4343 3.43433C11.7467 3.12191 12.2533 3.12191 12.5657 3.43433C12.8781 3.74675 12.8781 4.25328 12.5657 4.5657L9.13138 8.00001L12.5657 11.4343C12.8781 11.7467 12.8781 12.2533 12.5657 12.5657C12.2533 12.8781 11.7467 12.8781 11.4343 12.5657L8.00001 9.13138L4.5657 12.5657C4.25328 12.8781 3.74675 12.8781 3.43433 12.5657C3.12191 12.2533 3.12191 11.7467 3.43433 11.4343L6.86864 8.00001L3.43433 4.5657C3.12191 4.25328 3.12191 3.74675 3.43433 3.43433C3.74675 3.12191 4.25328 3.12191 4.5657 3.43433L8.00001 6.86864Z" fill="white"/>
</svg>
